# xmcd CD database file
#
# Track frame offsets:
#	150
#	24638
#	58389
#	100588
#	134227
#	186746
#	211922
#	246234
#
# Disc length: 3664 seconds
#
# Revision: 0
# Processed by: cddbd v1.5.2PL0 Copyright (c) Steve Scherf et al.
# Submitted via: CDex 1.51
#
DISCID=7f0e4e08
DTITLE=Gauci, Wessel, Bisio, Carlstedt - Thunk!
DYEAR=2009
DGENRE=Jazz
TTITLE0=Bemsha Swing
TTITLE1=Ask Me Now
TTITLE2=Let's Cool One
TTITLE3=Monks Mood
TTITLE4=Nutty
TTITLE5=Ruby My Dear
TTITLE6=Off Minor
TTITLE7=Well You Needn't
EXTD=YEAR: 2009
EXTT0=
EXTT1=
EXTT2=
EXTT3=
EXTT4=
EXTT5=
EXTT6=
EXTT7=
PLAYORDER=
